<svg width="59" height="59" viewBox="0 0 59 59" fill="none" xmlns="http://www.w3.org/2000/svg">
<circle cx="29.4538" cy="29.4539" r="29.0688" transform="rotate(90 29.4538 29.4539)" stroke="#110317" stroke-width="0.770372"/>
<path d="M27.368 36.9325L20.4346 29.9992C20.363 29.9276 20.3062 29.8427 20.2674 29.7492C20.2287 29.6556 20.2087 29.5554 20.2087 29.4541C20.2087 29.3529 20.2287 29.2527 20.2674 29.1591C20.3062 29.0656 20.363 28.9807 20.4346 28.9091L27.368 21.9758C27.5125 21.8312 27.7086 21.75 27.913 21.75C28.1175 21.75 28.3135 21.8312 28.4581 21.9758C28.6026 22.1203 28.6838 22.3164 28.6838 22.5208C28.6838 22.7252 28.6026 22.9213 28.4581 23.0658L22.8392 28.6838L37.9279 28.6838C38.1322 28.6838 38.3281 28.7649 38.4726 28.9094C38.6171 29.0539 38.6982 29.2498 38.6982 29.4542C38.6982 29.6585 38.6171 29.8544 38.4726 29.9989C38.3281 30.1434 38.1322 30.2245 37.9279 30.2245L22.8392 30.2245L28.4581 35.8425C28.6026 35.987 28.6838 36.1831 28.6838 36.3875C28.6838 36.5919 28.6026 36.788 28.4581 36.9325C28.3135 37.0771 28.1175 37.1583 27.913 37.1583C27.7086 37.1583 27.5125 37.0771 27.368 36.9325Z" fill="#110317"/>
</svg>
