<svg width="60" height="59" viewBox="0 0 60 59" fill="none" xmlns="http://www.w3.org/2000/svg">
<circle cx="29.4539" cy="29.4539" r="29.0688" transform="matrix(4.37114e-08 1 1 -4.37114e-08 0.908203 0.0517578)" stroke="#110317" stroke-width="0.770372"/>
<path d="M32.4479 36.9843L39.3813 30.0509C39.4529 29.9794 39.5097 29.8944 39.5485 29.8009C39.5873 29.7074 39.6072 29.6071 39.6072 29.5059C39.6072 29.4047 39.5873 29.3044 39.5485 29.2109C39.5097 29.1174 39.4529 29.0324 39.3813 28.9609L32.4479 22.0275C32.3034 21.883 32.1073 21.8018 31.9029 21.8018C31.6985 21.8018 31.5024 21.883 31.3578 22.0275C31.2133 22.1721 31.1321 22.3681 31.1321 22.5726C31.1321 22.777 31.2133 22.973 31.3578 23.1176L36.9768 28.7355L21.888 28.7355C21.6837 28.7355 21.4878 28.8167 21.3433 28.9612C21.1988 29.1056 21.1177 29.3016 21.1177 29.5059C21.1177 29.7102 21.1988 29.9062 21.3433 30.0506C21.4878 30.1951 21.6837 30.2763 21.888 30.2763L36.9768 30.2763L31.3578 35.8942C31.2133 36.0388 31.1321 36.2348 31.1321 36.4393C31.1321 36.6437 31.2133 36.8397 31.3578 36.9843C31.5024 37.1289 31.6985 37.2101 31.9029 37.2101C32.1073 37.2101 32.3034 37.1289 32.4479 36.9843Z" fill="#110317"/>
</svg>
