<svg width="44" height="44" viewBox="0 0 44 44" fill="none" xmlns="http://www.w3.org/2000/svg">
<circle cx="22" cy="22" r="21.7123" stroke="#FFFEFE" stroke-width="0.575413"/>
<path d="M28.9049 22.7124C28.9049 22.865 28.8443 23.0114 28.7364 23.1193C28.6284 23.2272 28.4821 23.2878 28.3295 23.2878H15.6704C15.5178 23.2878 15.3714 23.2272 15.2635 23.1193C15.1556 23.0114 15.095 22.865 15.095 22.7124C15.095 22.5598 15.1556 22.4134 15.2635 22.3055C15.3714 22.1976 15.5178 22.137 15.6704 22.137H28.3295C28.4821 22.137 28.6284 22.1976 28.7364 22.3055C28.8443 22.4134 28.9049 22.5598 28.9049 22.7124ZM15.6704 18.6845H28.3295C28.4821 18.6845 28.6284 18.6239 28.7364 18.516C28.8443 18.4081 28.9049 18.2617 28.9049 18.1091C28.9049 17.9565 28.8443 17.8101 28.7364 17.7022C28.6284 17.5943 28.4821 17.5337 28.3295 17.5337H15.6704C15.5178 17.5337 15.3714 17.5943 15.2635 17.7022C15.1556 17.8101 15.095 17.9565 15.095 18.1091C15.095 18.2617 15.1556 18.4081 15.2635 18.516C15.3714 18.6239 15.5178 18.6845 15.6704 18.6845ZM28.3295 26.7403H15.6704C15.5178 26.7403 15.3714 26.8009 15.2635 26.9088C15.1556 27.0167 15.095 27.1631 15.095 27.3157C15.095 27.4683 15.1556 27.6147 15.2635 27.7226C15.3714 27.8305 15.5178 27.8911 15.6704 27.8911H28.3295C28.4821 27.8911 28.6284 27.8305 28.7364 27.7226C28.8443 27.6147 28.9049 27.4683 28.9049 27.3157C28.9049 27.1631 28.8443 27.0167 28.7364 26.9088C28.6284 26.8009 28.4821 26.7403 28.3295 26.7403Z" fill="#FFFEFE"/>
</svg>
